<?xml version="1.0" encoding="UTF-8" standalone="no"?> <svg width="512" height="512" viewBox="0 0 512 512" fill="none" xmlns="http://www.w3.org/2000/svg">
<path d="M394.667 330.667H330.667V437.334H394.667V330.667Z" fill="#CE7149"/>
<path opacity="0.25" d="M362.667 330.667H330.667V437.334H362.667V330.667Z" fill="#60301F"/>
<path d="M461.164 258.008C465.316 252.434 468.208 246.024 469.64 239.222C471.072 232.42 471.009 225.388 469.457 218.613C467.904 211.838 464.898 205.48 460.648 199.981C456.397 194.481 451.002 189.97 444.837 186.76C447.481 180.281 448.491 173.252 447.777 166.291C447.064 159.33 444.65 152.651 440.748 146.843C436.845 141.035 431.574 136.276 425.399 132.985C419.224 129.694 412.334 127.972 405.337 127.971C404.889 127.971 404.445 127.991 404 128.005C405.621 121.701 405.778 115.11 404.459 108.736C403.141 102.362 400.382 96.374 396.393 91.2303C392.405 86.0867 387.292 81.9235 381.447 79.0596C375.603 76.1956 369.18 74.7066 362.671 74.7066C356.162 74.7066 349.739 76.1956 343.894 79.0596C338.049 81.9235 332.937 86.0867 328.949 91.2303C324.96 96.374 322.201 102.362 320.882 108.736C319.564 115.11 319.721 121.701 321.342 128.005C320.879 127.99 320.417 127.97 319.951 127.97C312.95 127.97 306.058 129.693 299.88 132.986C293.703 136.28 288.43 141.042 284.528 146.854C280.626 152.666 278.213 159.349 277.504 166.314C276.794 173.278 277.809 180.31 280.459 186.79C274.3 190.004 268.912 194.516 264.668 200.015C260.423 205.514 257.422 211.869 255.873 218.641C254.324 225.413 254.263 232.44 255.695 239.238C257.127 246.035 260.017 252.441 264.166 258.013C258.26 263.012 253.516 269.239 250.264 276.26C247.012 283.281 245.33 290.927 245.337 298.665C245.337 312.81 250.956 326.376 260.958 336.378C270.96 346.38 284.525 351.999 298.67 352H426.663C433.667 352 440.603 350.621 447.074 347.941C453.545 345.261 459.425 341.332 464.377 336.38C469.33 331.427 473.259 325.547 475.94 319.077C478.62 312.606 480 305.67 480 298.666V298.666C480.007 290.927 478.325 283.279 475.071 276.257C471.818 269.235 467.072 263.007 461.164 258.008V258.008Z" fill="#2ECC71"/>
<path opacity="0.25" d="M416 298.666C416.007 290.927 414.325 283.279 411.071 276.257C407.818 269.235 403.072 263.007 397.164 258.008C401.316 252.434 404.208 246.024 405.64 239.222C407.072 232.42 407.009 225.388 405.457 218.613C403.904 211.838 400.898 205.48 396.648 199.981C392.397 194.481 387.002 189.97 380.837 186.76C383.481 180.281 384.491 173.252 383.777 166.291C383.064 159.33 380.65 152.651 376.748 146.843C372.845 141.035 367.574 136.276 361.399 132.985C355.224 129.694 348.334 127.972 341.337 127.971C340.889 127.971 340.445 127.991 340 128.005C341.735 121.255 341.791 114.182 340.165 107.405C338.539 100.628 335.28 94.3513 330.671 89.123C326.062 94.3514 322.802 100.628 321.176 107.406C319.55 114.183 319.607 121.256 321.342 128.006C320.879 127.991 320.417 127.971 319.951 127.971C312.95 127.971 306.058 129.694 299.88 132.987C293.703 136.281 288.43 141.043 284.528 146.855C280.626 152.667 278.213 159.35 277.504 166.315C276.794 173.279 277.809 180.311 280.459 186.791C274.3 190.005 268.912 194.517 264.668 200.016C260.423 205.515 257.422 211.87 255.873 218.642C254.324 225.414 254.263 232.441 255.695 239.239C257.127 246.036 260.017 252.442 264.166 258.014C258.26 263.013 253.516 269.24 250.264 276.261C247.012 283.282 245.33 290.928 245.337 298.666C245.337 312.811 250.956 326.376 260.958 336.378C270.96 346.38 284.525 351.999 298.67 352H362.664C369.668 352 376.603 350.621 383.074 347.94C389.545 345.26 395.425 341.332 400.378 336.379C405.33 331.427 409.259 325.547 411.94 319.076C414.62 312.605 416 305.67 416 298.666V298.666Z" fill="#105E30"/>
<path d="M181.333 330.667H117.333V437.334H181.333V330.667Z" fill="#CE7149"/>
<path opacity="0.25" d="M149.333 330.667H117.333V437.334H149.333V330.667Z" fill="#60301F"/>
<path d="M247.831 258.008C251.983 252.433 254.875 246.023 256.306 239.221C257.738 232.419 257.675 225.387 256.122 218.612C254.569 211.837 251.563 205.479 247.312 199.98C243.061 194.48 237.666 189.97 231.5 186.76C234.144 180.281 235.154 173.252 234.441 166.291C233.727 159.33 231.313 152.651 227.411 146.843C223.508 141.035 218.237 136.276 212.062 132.985C205.887 129.694 198.997 127.972 192 127.971C191.552 127.971 191.108 127.991 190.663 128.005C192.284 121.701 192.441 115.11 191.122 108.736C189.804 102.362 187.045 96.374 183.056 91.2303C179.068 86.0867 173.956 81.9235 168.111 79.0596C162.266 76.1956 155.843 74.7066 149.334 74.7066C142.825 74.7066 136.402 76.1956 130.557 79.0596C124.713 81.9235 119.6 86.0867 115.612 91.2303C111.623 96.374 108.864 102.362 107.546 108.736C106.227 115.11 106.384 121.701 108.005 128.005C107.542 127.99 107.08 127.97 106.614 127.97C99.6135 127.97 92.7206 129.693 86.5431 132.986C80.3656 136.28 75.0933 141.042 71.1911 146.854C67.2888 152.666 64.8766 159.349 64.167 166.314C63.4573 173.278 64.4722 180.31 67.122 186.79C60.9633 190.004 55.5755 194.516 51.3307 200.015C47.086 205.514 44.0854 211.869 42.5363 218.641C40.9871 225.413 40.9263 232.44 42.3581 239.238C43.7898 246.035 46.68 252.441 50.829 258.013C44.9229 263.012 40.1785 269.24 36.9265 276.261C33.6745 283.282 31.9932 290.928 32 298.666V298.666C32.0002 305.67 33.3799 312.606 36.0604 319.077C38.7409 325.547 42.6697 331.427 47.6225 336.38C52.5754 341.332 58.4551 345.261 64.9262 347.941C71.3973 350.621 78.3329 352 85.337 352H213.33C220.334 352 227.27 350.621 233.741 347.941C240.212 345.261 246.092 341.332 251.044 336.38C255.997 331.427 259.926 325.547 262.607 319.077C265.287 312.606 266.667 305.67 266.667 298.666V298.666C266.674 290.927 264.992 283.279 261.738 276.257C258.485 269.235 253.739 263.007 247.831 258.008V258.008Z" fill="#2ECC71"/>
<path opacity="0.25" d="M74.667 298.666C74.6609 290.928 76.3428 283.282 79.5955 276.261C82.8482 269.24 87.5933 263.013 93.5 258.014C89.351 252.442 86.4609 246.036 85.0291 239.239C83.5973 232.441 83.6581 225.414 85.2073 218.642C86.7564 211.87 89.757 205.515 94.0017 200.016C98.2465 194.517 103.634 190.005 109.793 186.791C107.143 180.311 106.128 173.279 106.838 166.315C107.548 159.35 109.96 152.668 113.862 146.855C117.764 141.043 123.037 136.281 129.214 132.987C135.392 129.694 142.285 127.971 149.285 127.971C149.752 127.971 150.213 127.991 150.676 128.006C148.355 118.974 149.054 109.43 152.665 100.832C156.276 92.2343 162.602 85.0542 170.676 80.388C163.395 76.1877 155.035 74.2305 146.646 74.7618C138.257 75.293 130.211 78.2891 123.518 83.3743C116.825 88.4596 111.782 95.4077 109.021 103.347C106.26 111.287 105.905 119.865 108 128.006C107.537 127.991 107.075 127.971 106.609 127.971C99.6085 127.971 92.7156 129.694 86.5381 132.987C80.3606 136.281 75.0883 141.043 71.1861 146.855C67.2839 152.668 64.8716 159.35 64.162 166.315C63.4524 173.279 64.4672 180.311 67.117 186.791C60.9583 190.005 55.5705 194.517 51.3257 200.016C47.081 205.515 44.0804 211.87 42.5313 218.642C40.9821 225.414 40.9213 232.441 42.3531 239.239C43.7849 246.036 46.675 252.442 50.824 258.014C44.919 263.014 40.1755 269.241 36.9244 276.262C33.6733 283.283 31.9928 290.929 32 298.666V298.666C32.0002 305.67 33.3799 312.606 36.0604 319.077C38.7409 325.548 42.6697 331.427 47.6225 336.38C52.5754 341.332 58.4552 345.261 64.9262 347.941C71.3973 350.621 78.3329 352 85.337 352H128C113.855 352 100.29 346.38 90.2881 336.378C80.2863 326.376 74.6673 312.811 74.667 298.666Z" fill="#105E30"/>
<path d="M288 330.667H224V437.334H288V330.667Z" fill="#CE7149"/>
<path opacity="0.25" d="M256 330.667H224V437.334H256V330.667Z" fill="#60301F"/>
<path d="M354.5 258.008C358.652 252.434 361.544 246.024 362.976 239.222C364.408 232.42 364.345 225.388 362.793 218.613C361.24 211.838 358.234 205.48 353.984 199.981C349.733 194.481 344.338 189.97 338.173 186.76C340.817 180.281 341.827 173.252 341.113 166.291C340.4 159.33 337.986 152.651 334.084 146.843C330.181 141.035 324.91 136.276 318.735 132.985C312.56 129.694 305.67 127.972 298.673 127.971C298.225 127.971 297.781 127.991 297.336 128.005C298.957 121.701 299.114 115.11 297.795 108.736C296.477 102.362 293.718 96.374 289.729 91.2303C285.741 86.0867 280.628 81.9235 274.783 79.0596C268.938 76.1956 262.516 74.7066 256.007 74.7066C249.498 74.7066 243.075 76.1956 237.23 79.0596C231.385 81.9235 226.273 86.0867 222.285 91.2303C218.296 96.374 215.537 102.362 214.218 108.736C212.9 115.11 213.057 121.701 214.678 128.005C214.215 127.99 213.753 127.97 213.287 127.97C206.286 127.97 199.393 129.693 193.216 132.986C187.039 136.28 181.766 141.042 177.864 146.854C173.962 152.666 171.549 159.349 170.84 166.314C170.13 173.278 171.145 180.31 173.795 186.79C167.636 190.003 162.248 194.516 158.003 200.015C153.758 205.514 150.757 211.869 149.207 218.641C147.658 225.413 147.597 232.44 149.029 239.238C150.461 246.036 153.351 252.442 157.5 258.014C151.594 263.013 146.85 269.24 143.598 276.261C140.346 283.282 138.664 290.928 138.671 298.666C138.671 312.81 144.29 326.375 154.291 336.377C164.292 346.379 177.856 351.998 192 352H320C327.004 352 333.94 350.621 340.411 347.941C346.882 345.261 352.762 341.332 357.714 336.38C362.667 331.427 366.596 325.547 369.277 319.077C371.957 312.606 373.337 305.67 373.337 298.666V298.666C373.343 290.927 371.661 283.279 368.408 276.257C365.154 269.235 360.408 263.007 354.5 258.008V258.008Z" fill="#2ECC71"/>
<path opacity="0.25" d="M181.334 298.666C181.327 290.928 183.009 283.282 186.261 276.261C189.513 269.24 194.257 263.013 200.163 258.014C196.014 252.442 193.124 246.036 191.692 239.239C190.26 232.441 190.321 225.414 191.87 218.642C193.419 211.87 196.42 205.515 200.665 200.016C204.909 194.517 210.297 190.005 216.456 186.791C213.806 180.311 212.791 173.279 213.501 166.315C214.21 159.35 216.623 152.667 220.525 146.855C224.427 141.043 229.7 136.281 235.877 132.987C242.054 129.694 248.947 127.971 255.948 127.971C256.415 127.971 256.876 127.991 257.339 128.006C255.018 118.974 255.717 109.43 259.328 100.832C262.939 92.2343 269.265 85.0542 277.339 80.388C270.058 76.1922 261.7 74.2385 253.314 74.772C244.927 75.3054 236.885 78.3021 230.194 83.3866C223.503 88.4711 218.461 95.4172 215.701 103.354C212.941 111.292 212.585 119.867 214.677 128.006C214.214 127.991 213.752 127.971 213.286 127.971C206.285 127.971 199.392 129.694 193.215 132.987C187.038 136.281 181.765 141.043 177.863 146.855C173.961 152.667 171.548 159.35 170.839 166.315C170.129 173.279 171.144 180.311 173.794 186.791C167.635 190.005 162.247 194.517 158.002 200.016C153.757 205.515 150.757 211.87 149.208 218.642C147.658 225.413 147.597 232.441 149.029 239.239C150.461 246.036 153.351 252.442 157.5 258.014C151.594 263.013 146.85 269.24 143.598 276.261C140.346 283.282 138.664 290.928 138.671 298.666C138.671 312.81 144.29 326.375 154.291 336.377C164.292 346.379 177.856 351.998 192 352H234.67C227.666 352 220.73 350.621 214.259 347.94C207.788 345.26 201.909 341.332 196.956 336.379C192.003 331.427 188.075 325.547 185.394 319.076C182.714 312.606 181.334 305.67 181.334 298.666V298.666Z" fill="#105E30"/>
<path d="M484.539 271.334C481.977 265.932 478.675 260.914 474.728 256.423C481.18 244.002 482.984 229.685 479.813 216.053C476.642 202.42 468.705 190.369 457.433 182.071C458.941 175.165 459.062 168.029 457.79 161.075C456.519 154.122 453.879 147.491 450.025 141.565C446.171 135.64 441.179 130.539 435.338 126.558C429.497 122.576 422.924 119.794 416 118.373C416.007 118.026 416.011 117.68 416.01 117.333C415.986 103.222 410.371 89.6965 400.396 79.7169C390.42 69.7372 376.896 64.1174 362.786 64.0879C348.675 64.0584 335.128 69.6217 325.111 79.5595C315.093 89.4973 309.422 103 309.339 117.11C309.256 103.021 303.601 89.5383 293.61 79.6046C283.62 69.6709 270.104 64.0937 256.016 64.091C241.927 64.0882 228.409 69.66 218.414 79.5898C208.42 89.5195 202.76 103.001 202.671 117.089C202.587 102.978 196.914 89.4748 186.894 79.5376C176.875 69.6004 163.326 64.039 149.214 64.0712C135.102 64.1035 121.579 69.7269 111.605 79.7098C101.631 89.6927 96.0197 103.221 96.0001 117.333C96.0001 117.675 96.0031 118.017 96.0091 118.36C89.0715 119.769 82.4839 122.546 76.6299 126.526C70.776 130.507 65.7729 135.614 61.9121 141.547C58.0514 147.481 55.4102 154.124 54.1425 161.089C52.8747 168.054 53.0058 175.201 54.5281 182.115C43.2736 190.417 35.3519 202.464 32.1885 216.087C29.0251 229.71 30.8278 244.015 37.2721 256.427C29.1505 265.672 23.8662 277.062 22.0522 289.233C20.2383 301.404 21.9716 313.84 27.0444 325.051C32.1173 336.262 40.3147 345.773 50.6546 352.445C60.9946 359.116 73.0386 362.665 85.3441 362.667H106.671V437.334C106.671 440.162 107.795 442.874 109.794 444.874C111.793 446.874 114.505 447.999 117.333 448H181.333C184.162 448 186.875 446.876 188.876 444.876C190.876 442.875 192 440.162 192 437.333V362.667H213.333V437.334C213.333 440.163 214.457 442.876 216.458 444.876C218.458 446.876 221.171 448 224 448H288C290.829 448 293.542 446.876 295.543 444.876C297.543 442.875 298.667 440.162 298.667 437.333V362.667H320V437.334C320 440.163 321.124 442.876 323.124 444.876C325.125 446.876 327.837 448 330.666 448H394.666C397.495 448 400.208 446.876 402.209 444.876C404.209 442.875 405.333 440.162 405.333 437.333V362.667H426.662C443.63 362.648 459.897 355.899 471.896 343.901C483.894 331.902 490.643 315.635 490.662 298.667C490.689 289.213 488.597 279.873 484.539 271.334V271.334ZM214.339 138.667C215.994 138.719 217.637 138.384 219.14 137.691C220.643 136.997 221.964 135.963 222.999 134.671C224.033 133.378 224.752 131.863 225.1 130.245C225.447 128.626 225.413 126.949 225 125.346C223.785 120.618 223.668 115.675 224.657 110.894C225.646 106.114 227.716 101.623 230.708 97.7656C233.699 93.908 237.534 90.7859 241.918 88.6381C246.301 86.4902 251.118 85.3736 256 85.3736C260.882 85.3736 265.699 86.4902 270.082 88.6381C274.466 90.7859 278.301 93.908 281.292 97.7656C284.284 101.623 286.354 106.114 287.343 110.894C288.332 115.675 288.215 120.618 287 125.346C286.587 126.948 286.553 128.625 286.9 130.243C287.247 131.861 287.965 133.376 288.999 134.668C290.032 135.961 291.352 136.995 292.854 137.689C294.356 138.384 295.999 138.719 297.653 138.669L298.029 138.656C298.24 138.649 298.453 138.639 298.666 138.639C303.914 138.639 309.082 139.929 313.713 142.397C318.345 144.865 322.299 148.434 325.226 152.789C328.154 157.145 329.965 162.154 330.5 167.375C331.035 172.596 330.279 177.868 328.296 182.727C327.291 185.187 327.24 187.934 328.154 190.429C329.068 192.925 330.88 194.99 333.236 196.219C338.032 198.714 342.23 202.221 345.537 206.498C348.845 210.774 351.184 215.718 352.393 220.988C353.602 226.257 353.651 231.727 352.539 237.017C351.426 242.308 349.177 247.294 345.948 251.63C344.326 253.804 343.593 256.515 343.898 259.21C344.203 261.906 345.524 264.384 347.592 266.14C354.258 271.789 359.029 279.35 361.259 287.799C363.488 296.247 363.069 305.177 360.059 313.38C357.048 321.584 351.591 328.664 344.425 333.665C337.259 338.665 328.73 341.344 319.992 341.34H192C183.264 341.343 174.737 338.663 167.573 333.663C160.409 328.663 154.953 321.584 151.943 313.383C148.932 305.181 148.513 296.254 150.741 287.806C152.969 279.359 157.737 271.799 164.4 266.149C166.467 264.393 167.788 261.915 168.093 259.22C168.398 256.525 167.665 253.815 166.043 251.641C162.816 247.307 160.569 242.324 159.456 237.037C158.344 231.749 158.392 226.283 159.598 221.016C160.804 215.749 163.14 210.807 166.443 206.531C169.746 202.255 173.938 198.747 178.729 196.249C181.085 195.017 182.896 192.95 183.807 190.453C184.719 187.956 184.665 185.209 183.657 182.749C181.67 177.889 180.91 172.616 181.442 167.393C181.975 162.17 183.784 157.158 186.711 152.799C189.638 148.441 193.592 144.869 198.225 142.4C202.858 139.93 208.028 138.639 213.278 138.639C213.513 138.639 213.746 138.649 213.978 138.657L214.339 138.667ZM55.1651 328.83C50.9932 324.663 47.7313 319.676 45.5853 314.185C43.4394 308.693 42.4563 302.815 42.698 296.924C42.9397 291.033 44.4011 285.256 46.9897 279.958C49.5783 274.661 53.2379 269.958 57.7371 266.147C59.8055 264.391 61.1268 261.912 61.432 259.216C61.7373 256.52 61.0035 253.808 59.3801 251.634C56.1546 247.3 53.9081 242.318 52.7958 237.032C51.6835 231.746 51.7319 226.281 52.9376 221.015C54.1433 215.749 56.4776 210.807 59.7792 206.531C63.0809 202.256 67.2713 198.747 72.0611 196.249C74.4151 195.02 76.2258 192.957 77.1393 190.463C78.0527 187.97 78.0031 185.225 77.0001 182.766C75.0091 177.906 74.2449 172.631 74.7749 167.406C75.3049 162.18 77.1129 157.166 80.0392 152.805C82.9656 148.444 86.9203 144.87 91.5546 142.399C96.1888 139.928 101.36 138.635 106.612 138.635C106.903 138.635 107.187 138.651 107.535 138.667C109.199 138.741 110.858 138.424 112.378 137.742C113.897 137.06 115.236 136.031 116.287 134.738C117.337 133.445 118.071 131.924 118.427 130.296C118.784 128.669 118.755 126.981 118.342 125.367C117.671 122.743 117.331 120.045 117.332 117.336C117.337 112.795 118.308 108.307 120.18 104.17C122.053 100.033 124.785 96.3424 128.194 93.3425C131.603 90.3426 135.611 88.1025 139.953 86.771C144.294 85.4395 148.869 85.0471 153.374 85.6198C157.878 86.1926 162.21 87.7174 166.08 90.0929C169.95 92.4684 173.27 95.6403 175.82 99.3978C178.37 103.155 180.091 107.412 180.869 111.886C181.647 116.36 181.464 120.948 180.332 125.346C180.03 126.526 179.932 127.748 180.042 128.961C172.246 135.174 166.347 143.447 163.014 152.843C159.682 162.238 159.05 172.379 161.189 182.116C149.933 190.417 142.011 202.464 138.847 216.087C135.683 229.711 137.486 244.016 143.932 256.428C133.592 268.176 127.922 283.31 127.999 298.961C128.076 314.611 133.894 329.689 144.349 341.335H85.3391C79.7325 341.35 74.1787 340.252 68.9993 338.105C63.8199 335.959 59.1177 332.806 55.1651 328.83V328.83ZM170.665 426.666H128V362.666H170.667L170.665 426.666ZM277.332 426.666H234.666V362.666H277.333L277.332 426.666ZM383.999 426.666H341.333V362.666H384L383.999 426.666ZM426.662 341.333H367.65C378.106 329.686 383.923 314.606 383.999 298.954C384.075 283.303 378.404 268.167 368.062 256.419C374.513 243.998 376.315 229.682 373.143 216.051C369.971 202.419 362.034 190.369 350.762 182.072C352.891 172.352 352.259 162.23 348.935 152.851C345.612 143.473 339.73 135.211 331.956 129C332.072 127.78 331.976 126.55 331.673 125.363C331.002 122.739 330.662 120.041 330.663 117.332C330.668 112.791 331.639 108.303 333.511 104.166C335.384 100.029 338.116 96.3384 341.525 93.3385C344.934 90.3386 348.942 88.0985 353.284 86.767C357.625 85.4355 362.2 85.0431 366.705 85.6158C371.209 86.1886 375.541 87.7134 379.411 90.0889C383.281 92.4644 386.601 95.6363 389.151 99.3938C391.701 103.151 393.422 107.408 394.2 111.882C394.978 116.356 394.795 120.944 393.663 125.342C393.258 126.918 393.218 128.565 393.548 130.158C393.877 131.752 394.567 133.248 395.563 134.534C396.56 135.82 397.838 136.861 399.299 137.577C400.76 138.293 402.365 138.665 403.992 138.665C404.075 138.665 404.159 138.665 404.241 138.665L404.789 138.649C404.968 138.643 405.146 138.636 405.326 138.636C410.573 138.639 415.74 139.931 420.37 142.399C425.001 144.868 428.953 148.436 431.881 152.791C434.808 157.146 436.62 162.154 437.157 167.374C437.695 172.593 436.941 177.865 434.962 182.725C433.955 185.186 433.903 187.935 434.818 190.433C435.732 192.93 437.546 194.996 439.905 196.225C444.701 198.721 448.897 202.228 452.204 206.504C455.511 210.781 457.849 215.725 459.058 220.994C460.266 226.263 460.316 231.732 459.204 237.022C458.091 242.313 455.843 247.298 452.614 251.634C450.993 253.809 450.261 256.52 450.568 259.216C450.875 261.911 452.197 264.388 454.266 266.143C458.901 270.088 462.647 274.971 465.257 280.47C467.956 286.156 469.347 292.376 469.326 298.67C469.312 309.981 464.813 320.824 456.815 328.822C448.816 336.82 437.973 341.319 426.662 341.333V341.333Z" fill="black"/>
</svg>
