<?xml version="1.0" encoding="utf-8"?>
<!-- Generator: Adobe Illustrator 23.1.0, SVG Export Plug-In . SVG Version: 6.00 Build 0)  -->
<svg version="1.1" id="Layer_1" xmlns="http://www.w3.org/2000/svg" xmlns:xlink="http://www.w3.org/1999/xlink" x="0px" y="0px"
	 viewBox="0 0 900 900" style="enable-background:new 0 0 900 900;" xml:space="preserve">
<style type="text/css">
	.st0{fill-rule:evenodd;clip-rule:evenodd;}
</style>
<g id="Layer_x0020_1">
	<path class="st0" d="M585.7,405.3l-36.3,245.3c-0.6,4.4-4.7,7.4-9.1,6.8s-7.4-4.7-6.8-9.1L569.9,403c0.6-4.4,4.7-7.4,9.1-6.8
		S586.3,401,585.7,405.3L585.7,405.3z M643.3,352H272.7l8.9,333.1c0.4,14.5,11.9,26.5,26.7,26.5h299.5c14.7,0,26.3-12,26.7-26.5
		L643.3,352L643.3,352z M458,395.3c4.4,0,8,3.6,8,8v247.1c0,4.4-3.6,8-8,8c-4.4,0-8-3.6-8-8V403.3C450,398.9,453.6,395.3,458,395.3z
		 M346.1,403l36.3,245.3c0.6,4.4-2.4,8.4-6.8,9.1s-8.4-2.4-9.1-6.8l-36.3-245.3c-0.6-4.4,2.4-8.4,6.8-9.1S345.5,398.7,346.1,403
		L346.1,403z"/>
	<path d="M672.3,342H243.7c-4.4,0-8-3.6-8-8v-32.4c0-10.9,4.5-20.8,11.6-28c7.2-7.2,17.1-11.6,28-11.6h365.4
		c10.9,0,20.8,4.5,28,11.6c7.2,7.2,11.6,17.1,11.6,28V334C680.3,338.4,676.7,342,672.3,342L672.3,342z"/>
	<path d="M542.2,270c0,4.4,3.6,8,8,8c4.4,0,8-3.6,8-8v-43.6c0-7.4-3-14-7.8-18.9c-4.8-4.8-11.5-7.8-18.9-7.8H384.5
		c-7.4,0-14,3-18.9,7.8s-7.8,11.5-7.8,18.9V270c0,4.4,3.6,8,8,8c4.4,0,8-3.6,8-8v-43.6c0-2.9,1.2-5.6,3.2-7.6s4.6-3.2,7.6-3.2h146.9
		c2.9,0,5.6,1.2,7.6,3.2c1.9,1.9,3.2,4.6,3.2,7.6L542.2,270L542.2,270z"/>
</g>
</svg>
